<svg width="61" height="60" viewBox="0 0 61 60" fill="none" xmlns="http://www.w3.org/2000/svg">
<g clip-path="url(#clip0_335:64)">
<path d="M19.5635 23.3911C19.4035 23.0771 19.0905 22.8711 18.7395 22.8481L10.3272 22.2872C9.89127 22.2442 9.48826 22.5142 9.32924 22.9201L3.26473 38.4189C3.10172 38.8349 3.23473 39.3079 3.59074 39.5788C3.76875 39.7148 3.98273 39.7829 4.19566 39.7829C4.40659 39.7829 4.61765 39.7169 4.79565 39.5829L9.82928 35.8083L12.7601 36.3942C13.2381 36.4892 13.716 36.2272 13.89 35.7703C15.4639 31.6476 17.3587 27.8139 19.5195 24.3772C19.7066 24.079 19.7236 23.704 19.5635 23.3911ZM12.328 34.2682L9.78228 33.7593C9.50432 33.7043 9.21428 33.7703 8.98635 33.9402L6.40755 35.874L10.9241 24.3309L16.9617 24.7329C15.2218 27.6777 13.6679 30.8754 12.328 34.2682Z" fill="#EF2A82"/>
<path d="M38.213 50.1741L37.652 41.7607C37.628 41.4086 37.422 41.0957 37.1081 40.9357C36.7951 40.7757 36.4201 40.7916 36.1222 40.9796C32.6844 43.1404 28.8517 45.0353 24.7291 46.6091C24.2731 46.7821 24.0091 47.2601 24.1052 47.739L24.6911 50.6699L20.9164 55.7024C20.6484 56.0604 20.6495 56.5524 20.9204 56.9084C21.1134 57.1623 21.4104 57.3033 21.7163 57.3033C21.8383 57.3033 21.9614 57.2803 22.0813 57.2363L37.5801 51.1718C37.986 51.013 38.242 50.6089 38.213 50.1741ZM24.625 54.0908L26.5588 51.512C26.7289 51.285 26.7948 50.9951 26.7388 50.716L26.2299 48.1712C29.6236 46.8313 32.8203 45.2774 35.7651 43.5376L36.1681 49.5741L24.625 54.0908Z" fill="#EF2A82"/>
<path d="M29.4978 30.0005H22.7603C22.3974 30.0005 22.0634 30.1975 21.8863 30.5145L13.4299 45.7094C13.21 46.1054 13.2839 46.6013 13.6099 46.9153C13.801 47.0993 14.0519 47.1953 14.3039 47.1953C14.4819 47.1953 14.6609 47.1483 14.8208 47.0503L30.0157 37.8551C30.3146 37.6741 30.4977 37.3501 30.4977 37.0002V31.0005C30.4978 30.4486 30.0498 30.0005 29.4978 30.0005ZM28.498 36.4371L17.0099 43.3896L23.3474 32.0014V32.0003H28.498V36.4371Z" fill="#EF2A82"/>
<path d="M60.4496 0.96374C60.4086 0.47683 60.0227 0.0908184 59.5356 0.0498031C59.2037 0.0237878 26.2752 -2.27506 12.0223 35.0562C11.8813 35.4252 11.9703 35.8411 12.2493 36.1201L17.0039 40.8747C17.2269 41.0977 17.5389 41.1997 17.8519 41.1577C18.1629 41.1127 18.4349 40.9248 18.5869 40.6497L23.3505 32.0004H28.4981V36.4491L19.7968 41.9426C19.5398 42.1056 19.3708 42.3756 19.3369 42.6776C19.3029 42.9796 19.4088 43.2805 19.6239 43.4956L24.3785 48.2502C24.5695 48.4412 24.8245 48.5432 25.0854 48.5432C25.2054 48.5432 25.3264 48.5222 25.4424 48.4772C62.7754 34.2232 60.4776 1.29479 60.4496 0.96374ZM55.204 18.7045C51.6952 27.3857 43.6658 39.1879 25.3322 46.3764L21.9225 42.9666L30.0319 37.847C30.3218 37.663 30.4978 37.344 30.4978 37.001V31.0014C30.4978 30.4495 30.0498 30.0015 29.4979 30.0015H22.7584C22.3934 30.0015 22.0584 30.2004 21.8824 30.5194L17.4757 38.5208L14.123 35.167C26.6351 3.24758 53.3051 1.94166 58.4896 2.01467C58.5267 4.34656 58.3127 11.012 55.204 18.7045Z" fill="#EF2A82"/>
<path d="M17.6287 44.1645C17.4116 43.8766 17.0657 43.7365 16.7267 43.7725C16.7617 43.4325 16.6217 43.0876 16.3347 42.8705C14.8269 41.7307 12.881 41.3517 10.9942 41.8296C8.99133 42.3385 7.35342 43.7044 6.50147 45.5793L0.590005 58.5853C0.417038 58.9652 0.498013 59.4123 0.792972 59.7062C0.983985 59.8982 1.23992 59.9992 1.49996 59.9992C1.63999 59.9992 1.78097 59.9692 1.91398 59.9092L14.92 53.9967C16.7938 53.1458 18.1598 51.5079 18.6687 49.505C19.1476 47.6202 18.7687 45.6734 17.6287 44.1645ZM16.7308 49.0131C16.3728 50.424 15.4109 51.5769 14.093 52.1769L3.5138 56.9855L8.32243 46.4053C8.92137 45.0875 10.0753 44.1255 11.4862 43.7676C11.8572 43.6736 12.2301 43.6275 12.5981 43.6275C13.2211 43.6275 13.83 43.7606 14.3849 44.0195L13.433 45.7044C13.212 46.0954 13.2791 46.5864 13.597 46.9034C13.9149 47.2224 14.4059 47.2883 14.7959 47.0673L16.4808 46.1144C16.8907 46.9963 16.9838 48.0151 16.7308 49.0131Z" fill="#EF2A82"/>
<path d="M60.4495 0.964828C60.4085 0.477918 60.0225 0.0919066 59.5356 0.0508914C59.1456 0.019837 49.8763 -0.682109 38.9751 4.33956C38.6782 4.4755 38.4671 4.74948 38.4091 5.07151C38.3511 5.39353 38.4551 5.72341 38.6861 5.95439L54.545 21.8132C54.734 22.0022 54.989 22.1062 55.2519 22.1062C55.3109 22.1062 55.37 22.1011 55.4289 22.0912C55.7509 22.0332 56.0239 21.8222 56.1608 21.5252C61.1835 10.624 60.4815 1.35377 60.4495 0.964828ZM54.9279 19.3664L41.133 5.57142C49.1134 2.20267 56.1018 1.97064 58.4906 2.01072C58.5306 4.40155 58.3056 11.368 54.9279 19.3664Z" fill="#EF2A82"/>
<path d="M44.6605 15.8387C41.2977 12.4759 35.8272 12.4759 32.4645 15.8387C29.1017 19.2014 29.1017 24.6719 32.4645 28.0347C34.1454 29.7166 36.3542 30.5566 38.562 30.5566C40.7709 30.5566 42.9787 29.7156 44.6605 28.0347C48.0233 24.6719 48.0233 19.2013 44.6605 15.8387ZM43.2467 26.6207C40.6639 29.2035 36.4612 29.2035 33.8784 26.6207C31.2957 24.038 31.2957 19.8353 33.8784 17.2525C35.1694 15.9616 36.8662 15.3157 38.5621 15.3157C40.2581 15.3157 41.9549 15.9616 43.2468 17.2525C45.8295 19.8353 45.8295 24.038 43.2467 26.6207Z" fill="#EF2A82"/>
<path d="M40.55 23.925C39.454 25.0229 37.6702 25.0219 36.5732 23.925C35.4773 22.8282 35.4773 21.0453 36.5732 19.9483C37.6692 18.8524 39.453 18.8514 40.55 19.9483C40.94 20.3392 41.5739 20.3392 41.9638 19.9483C42.3547 19.5574 42.3547 18.9254 41.9638 18.5344C40.0889 16.6586 37.0352 16.6586 35.1594 18.5344C33.2835 20.4102 33.2835 23.4631 35.1594 25.3389C36.0973 26.2768 37.3303 26.7458 38.5621 26.7458C39.795 26.7458 41.0269 26.2768 41.9638 25.3389C42.3547 24.9479 42.3547 24.316 41.9638 23.925C41.5738 23.5341 40.94 23.5341 40.55 23.925Z" fill="#EF2A82"/>
</g>
<defs>
<clipPath id="clip0_335:64">
<rect width="60" height="60" fill="white" transform="translate(0.5)"/>
</clipPath>
</defs>
</svg>
