<svg width="61" height="60" viewBox="0 0 61 60" fill="none" xmlns="http://www.w3.org/2000/svg">
<g clip-path="url(#clip0_335:18)">
<path d="M47.7478 6.71074C42.7337 2.99684 36.7834 1.03453 30.5402 1.03453C24.8475 1.03453 19.1919 2.67316 14.9826 5.48484V1.03453C14.9826 0.463477 14.5192 0 13.9481 0C13.3771 0 12.9136 0.463477 12.9136 1.03453V7.54242C12.9136 7.94379 13.1453 8.30894 13.5084 8.47863C13.8715 8.64937 14.3008 8.59453 14.6092 8.33789C18.5546 5.06063 24.5102 3.10336 30.5402 3.10336C36.3364 3.10336 41.8605 4.92609 46.5167 8.3741C46.7019 8.51062 46.917 8.57684 47.1313 8.57684C47.4478 8.57684 47.7602 8.43199 47.963 8.15789C48.3034 7.69863 48.2072 7.05105 47.7478 6.71074Z" fill="#EF2A82"/>
<path d="M59.4654 12.4138H52.9575C52.5562 12.4138 52.193 12.6465 52.0224 13.0097C51.8516 13.3727 51.9065 13.8021 52.1631 14.1104C55.4404 18.0549 57.3976 24.0104 57.3976 30.0415C57.3976 35.8377 55.5749 41.3618 52.1269 46.0169C51.7866 46.4762 51.8828 47.1238 52.3421 47.4642C52.5272 47.6007 52.7424 47.6669 52.9566 47.6669C53.2731 47.6669 53.5855 47.5221 53.7893 47.248C57.5031 42.2339 59.4655 36.2834 59.4655 30.0404C59.4655 24.3477 57.8269 18.6911 55.0152 14.4828H59.4655C60.0366 14.4828 60.5001 14.0193 60.5001 13.4483C60.4999 12.8772 60.0365 12.4138 59.4654 12.4138Z" fill="#EF2A82"/>
<path d="M47.4925 51.5224C47.1295 51.3527 46.7012 51.4055 46.3918 51.6632C42.4463 54.9404 36.4907 56.8977 30.4607 56.8977C24.6635 56.8977 19.1394 55.075 14.4842 51.627C14.0249 51.2866 13.3774 51.3829 13.0369 51.8421C12.6966 52.3014 12.7928 52.949 13.2521 53.2894C18.2662 57.0032 24.2166 58.9656 30.4597 58.9656C36.1524 58.9656 41.808 57.327 46.0172 54.5153V58.9656C46.0172 59.5366 46.4807 60.0001 47.0518 60.0001C47.6228 60.0001 48.0863 59.5366 48.0863 58.9656V52.4577C48.0863 52.0562 47.8546 51.6911 47.4925 51.5224Z" fill="#EF2A82"/>
<path d="M8.83789 45.8907C5.56063 41.9453 3.60336 35.9907 3.60336 29.9597C3.60336 24.1635 5.42609 18.6394 8.87305 13.9842C9.21336 13.5249 9.11715 12.8774 8.65789 12.5369C8.19863 12.1956 7.55105 12.2928 7.21063 12.7521C3.49684 17.7662 1.53453 23.7165 1.53453 29.9597C1.53453 35.6524 3.17316 41.308 5.98484 45.5172H1.53453C0.963477 45.5172 0.5 45.9807 0.5 46.5518C0.5 47.1228 0.963477 47.5863 1.53453 47.5863H8.04242C8.44379 47.5863 8.80789 47.3546 8.97863 46.9915C9.14937 46.6283 9.09453 46.1989 8.83789 45.8907Z" fill="#EF2A82"/>
<path d="M31.5345 19.6531C31.5335 19.082 31.07 18.6206 30.5 18.6206C30.5 18.6206 30.4989 18.6206 30.4979 18.6206C29.9258 18.6217 29.4644 19.0861 29.4655 19.6572L29.4903 30.002C29.4914 30.5731 29.9548 31.0344 30.5248 31.0344C30.5259 31.0344 30.5269 31.0344 30.5269 31.0344C31.0991 31.0334 31.5604 30.569 31.5594 29.9979L31.5345 19.6531Z" fill="#EF2A82"/>
<path d="M30.5248 28.9655H24.2931C23.722 28.9655 23.2585 29.4289 23.2585 30C23.2585 30.571 23.722 31.0345 24.2931 31.0345H30.5248C31.0958 31.0345 31.5593 30.571 31.5593 30C31.5593 29.4289 31.0958 28.9655 30.5248 28.9655Z" fill="#EF2A82"/>
<path d="M30.5 8.27594C18.5217 8.27594 8.77588 18.0208 8.77588 30C8.77588 41.9793 18.5217 51.7241 30.5 51.7241C42.4792 51.7241 52.2241 41.9793 52.2241 30C52.2241 18.0208 42.4792 8.27594 30.5 8.27594ZM30.5 49.6552C19.6617 49.6552 10.8448 40.8384 10.8448 30C10.8448 19.1617 19.6617 10.3449 30.5 10.3449C41.3383 10.3449 50.1551 19.1617 50.1551 30C50.1551 40.8384 41.3383 49.6552 30.5 49.6552Z" fill="#EF2A82"/>
<path d="M16.0173 28.9655H13.9484C13.3773 28.9655 12.9138 29.4289 12.9138 30C12.9138 30.571 13.3773 31.0345 13.9484 31.0345H16.0173C16.5884 31.0345 17.0518 30.571 17.0518 30C17.0518 29.4289 16.5884 28.9655 16.0173 28.9655Z" fill="#EF2A82"/>
<path d="M47.0516 28.9655H44.9827C44.4116 28.9655 43.9481 29.4289 43.9481 30C43.9481 30.571 44.4116 31.0345 44.9827 31.0345H47.0516C47.6227 31.0345 48.0861 30.571 48.0861 30C48.0861 29.4289 47.6227 28.9655 47.0516 28.9655Z" fill="#EF2A82"/>
<path d="M30.5 43.4483C29.9289 43.4483 29.4655 43.9118 29.4655 44.4828V46.5518C29.4655 47.1228 29.9289 47.5863 30.5 47.5863C31.071 47.5863 31.5345 47.1228 31.5345 46.5518V44.4828C31.5345 43.9117 31.071 43.4483 30.5 43.4483Z" fill="#EF2A82"/>
<path d="M30.5 12.4138C29.9289 12.4138 29.4655 12.8772 29.4655 13.4483V15.5172C29.4655 16.0883 29.9289 16.5518 30.5 16.5518C31.071 16.5518 31.5345 16.0883 31.5345 15.5172V13.4483C31.5345 12.8772 31.071 12.4138 30.5 12.4138Z" fill="#EF2A82"/>
<path d="M20.8866 39.6135C20.4831 39.2089 19.8282 39.2089 19.4238 39.6135L18.0646 40.9718C17.6611 41.3753 17.6611 42.0301 18.0646 42.4345C18.2662 42.6362 18.5311 42.7376 18.7959 42.7376C19.0608 42.7376 19.3256 42.6373 19.5273 42.4345L20.8866 41.0762C21.29 40.6727 21.29 40.0179 20.8866 39.6135Z" fill="#EF2A82"/>
<path d="M42.9345 17.5655C42.53 17.161 41.8762 17.161 41.4718 17.5655L40.1135 18.9238C39.7089 19.3283 39.7089 19.9821 40.1135 20.3865C40.3151 20.5882 40.58 20.6896 40.8448 20.6896C41.1097 20.6896 41.3745 20.5882 41.5762 20.3865L42.9345 19.0282C43.3389 18.6238 43.3389 17.97 42.9345 17.5655Z" fill="#EF2A82"/>
<path d="M42.9345 40.9717L41.5762 39.6134C41.1717 39.2088 40.5179 39.2088 40.1135 39.6134C39.7089 40.0179 39.7089 40.6717 40.1135 41.0761L41.4718 42.4344C41.6735 42.6361 41.9383 42.7375 42.2031 42.7375C42.468 42.7375 42.7328 42.6372 42.9345 42.4344C43.3389 42.03 43.3389 41.3762 42.9345 40.9717Z" fill="#EF2A82"/>
<path d="M20.8865 18.9238L19.5272 17.5655C19.1238 17.161 18.4689 17.161 18.0645 17.5655C17.66 17.97 17.66 18.6247 18.0645 19.0282L19.4238 20.3865C19.6254 20.5882 19.8903 20.6896 20.1551 20.6896C20.42 20.6896 20.6848 20.5882 20.8865 20.3865C21.291 19.9821 21.291 19.3273 20.8865 18.9238Z" fill="#EF2A82"/>
</g>
<defs>
<clipPath id="clip0_335:18">
<rect width="60" height="60" fill="white" transform="translate(0.5)"/>
</clipPath>
</defs>
</svg>
